Coordinates
version=1
nRows=33
nColumns=30
inDegrees=yes

Units are S.I. units (second, meters, Newtons, ...)
Angles are in degrees.

endheader
time	floatyaw	floatroll	floatpitch	floatx	floaty	floatz	pro_sup_l	deviation_l	flexion_l	cmc_flexion_l	cmc_abduction_l	mp_flexion_l	ip_flexion_l	2mcp_flexion_l	2mcp_abduction_l	2pm_flexion_l	2md_flexion_l	3mcp_flexion_l	3mcp_abduction_l	3pm_flexion_l	3md_flexion_l	4mcp_flexion_l	4mcp_abduction_l	4pm_flexion_l	4md_flexion_l	5mcp_flexion_l	5mcp_abduction_l	5pm_flexion_l	5md_flexion_l
-1.495000	-160.147433	-5.066637	-73.570646	0.082856	-0.181945	-0.019384	103.576573	4.075440	-1.214474	14.188069	8.472801	-25.630496	-41.099709	29.674135	6.863739	43.947752	30.106049	24.258362	4.293253	45.540831	30.492245	13.552112	-4.383610	52.950214	36.746954	2.324927	-8.340670	62.027756	43.155389
-1.485000	-160.147433	-5.066637	-73.570646	0.082847	-0.181942	-0.019389	103.584280	4.078394	-1.211894	14.196546	8.509107	-25.667247	-41.146288	29.678028	6.867041	43.928709	30.096163	24.251991	4.291163	45.551762	30.504978	13.549930	-4.387419	52.963258	36.756686	2.316893	-8.336859	62.015705	43.146698
-1.475000	-160.147433	-5.066637	-73.570646	0.082836	-0.181939	-0.019391	103.593003	4.081117	-1.212978	14.205321	8.542042	-25.701447	-41.191737	29.690749	6.868075	43.920050	30.090456	24.248441	4.291506	45.565713	30.518343	13.556844	-4.394930	52.982761	36.768059	2.317513	-8.325282	61.987965	43.130784
-1.465000	-160.147433	-5.066637	-73.570646	0.082822	-0.181937	-0.019394	103.599768	4.081113	-1.218181	14.208763	8.568825	-25.729882	-41.231944	29.711086	6.868670	43.923529	30.089435	24.247840	4.294655	45.583998	30.531763	13.571859	-4.405416	53.009031	36.780521	2.328028	-8.310362	61.952855	43.111791
-1.455000	-160.147433	-5.066637	-73.570646	0.082807	-0.181937	-0.019399	103.602141	4.076767	-1.227229	14.203844	8.589421	-25.751349	-41.266605	29.735625	6.870328	43.936813	30.091500	24.249687	4.299543	45.607117	30.544732	13.590778	-4.416892	53.039688	36.792941	2.345638	-8.297287	61.921284	43.094978
-1.445000	-160.147433	-5.066637	-73.570646	0.082793	-0.181942	-0.019408	103.599374	4.068507	-1.238989	14.191411	8.606819	-25.766461	-41.298136	29.760353	6.873329	43.955789	30.094159	24.252988	4.304149	45.634358	30.556760	13.608301	-4.426903	53.070111	36.803728	2.365209	-8.289864	61.903151	43.084866
-1.435000	-160.147433	-5.066637	-73.570646	0.082780	-0.181950	-0.019419	103.592338	4.058609	-1.251519	14.175627	8.625833	-25.777224	-41.329642	29.782329	6.876812	43.976908	30.095447	24.256673	4.306544	45.663723	30.567280	13.620411	-4.433520	53.095163	36.811302	2.381628	-8.289209	61.904443	43.083897
-1.425000	-160.147433	-5.066637	-73.570646	0.082768	-0.181960	-0.019429	103.582578	4.049781	-1.262526	14.161596	8.650894	-25.786066	-41.362517	29.800324	6.879763	43.998372	30.094920	24.259977	4.305908	45.692841	30.575929	13.625744	-4.435967	53.111501	36.814784	2.391761	-8.293878	61.925992	43.092021
-1.415000	-160.147433	-5.066637	-73.570646	0.082759	-0.181968	-0.019435	103.571387	4.043592	-1.270192	14.152400	8.683792	-25.794467	-41.394713	29.814189	6.882081	44.020008	30.093880	24.262571	4.302954	45.720370	30.583018	13.625495	-4.434636	53.119152	36.814479	2.395244	-8.301119	61.963937	43.107091
-1.405000	-160.147433	-5.066637	-73.570646	0.082752	-0.181974	-0.019435	103.559539	4.039826	-1.273896	14.147281	8.722563	-25.801959	-41.420738	29.823678	6.884822	44.042377	30.094791	24.264333	4.299482	45.746668	30.589685	13.622178	-4.430689	53.121352	36.811806	2.393893	-8.308368	62.011288	43.125704
-1.395000	-160.147433	-5.066637	-73.570646	0.082745	-0.181977	-0.019432	103.547632	4.037102	-1.274259	14.142070	8.762288	-25.806322	-41.433730	29.827744	6.889459	44.065734	30.100162	24.264910	4.297319	45.773175	30.597551	13.617989	-4.425544	53.122726	36.808711	2.390267	-8.314168	62.059874	43.144147
-1.385000	-160.147433	-5.066637	-73.570646	0.082738	-0.181978	-0.019427	103.536483	4.034139	-1.272481	14.131600	8.797381	-25.805097	-41.428841	29.824956	6.896777	44.089276	30.111336	24.263505	4.297260	45.801122	30.608128	13.613656	-4.420466	53.126915	36.806867	2.386294	-8.318303	62.102152	43.159251
-1.375000	-160.147433	-5.066637	-73.570646	0.082729	-0.181980	-0.019423	103.527050	4.030661	-1.269496	14.112593	8.823901	-25.797525	-41.406236	29.814857	6.906171	44.110992	30.127679	24.259251	4.298617	45.830526	30.622234	13.608419	-4.416302	53.134943	36.807076	2.382630	-8.321429	62.132594	43.169001
-1.365000	-160.147433	-5.066637	-73.570646	0.082718	-0.181982	-0.019422	103.519831	4.027328	-1.265646	14.085250	8.840647	-25.785709	-41.372085	29.799420	6.915683	44.128335	30.146647	24.252078	4.299635	45.859920	30.639539	13.601025	-4.413387	53.145159	36.809153	2.378785	-8.324529	62.148579	43.172810
-1.355000	-160.147433	-5.066637	-73.570646	0.082708	-0.181984	-0.019423	103.514267	4.024905	-1.261001	14.052807	8.848860	-25.774114	-41.336739	29.783441	6.922690	44.139619	30.164874	24.243323	4.298543	45.886703	30.658305	13.590938	-4.411611	53.154616	36.812320	2.373693	-8.328396	62.150628	43.171444
-1.345000	-160.147433	-5.066637	-73.570646	0.082698	-0.181986	-0.019426	103.508880	4.023491	-1.255886	14.019682	8.851244	-25.767422	-41.310689	29.773129	6.924935	44.145405	30.179780	24.235459	4.294639	45.907891	30.675612	13.578858	-4.410566	53.160948	36.815841	2.366466	-8.333259	62.141889	43.166577
-1.335000	-160.147433	-5.066637	-73.570646	0.082692	-0.181988	-0.019428	103.502366	4.022507	-1.251063	13.989568	8.850943	-25.767797	-41.300124	29.773300	6.921593	44.148788	30.190693	24.231039	4.288715	45.921245	30.688243	13.566401	-4.409757	53.163673	36.819473	2.357145	-8.338639	62.126923	43.160101
-1.325000	-160.147433	-5.066637	-73.570646	0.082688	-0.181988	-0.019430	103.494948	4.021424	-1.247516	13.964381	8.850770	-25.773404	-41.304415	29.784775	6.913945	44.153952	30.198659	24.231519	4.282590	45.926519	30.694039	13.555397	-4.408854	53.164382	36.823546	2.347137	-8.343519	62.110203	43.153453
-1.315000	-160.147433	-5.066637	-73.570646	0.082688	-0.181988	-0.019430	103.488821	4.020496	-1.246092	13.944127	8.852687	-25.779411	-41.317009	29.803709	6.905269	44.163575	30.205034	24.236637	4.278091	45.926211	30.693019	13.547276	-4.407915	53.165965	36.828722	2.338959	-8.346713	62.094976	43.147275
-1.305000	-160.147433	-5.066637	-73.570646	0.082690	-0.181986	-0.019429	103.487113	4.020796	-1.247294	13.927298	8.857537	-25.781013	-41.329179	29.823368	6.899787	44.176808	30.209979	24.244582	4.276182	45.925077	30.687552	13.542670	-4.407416	53.171382	36.835615	2.335298	-8.347288	62.082966	43.141569
-1.295000	-160.147433	-5.066637	-73.570646	0.082692	-0.181985	-0.019429	103.492015	4.023474	-1.251156	13.911645	8.865026	-25.776336	-41.334391	29.837297	6.900973	44.189413	30.212113	24.252786	4.276711	45.928249	30.681302	13.541184	-4.407980	53.182456	36.844419	2.337847	-8.344922	62.074912	43.136180
-1.285000	-160.147433	-5.066637	-73.570646	0.082692	-0.181984	-0.019428	103.503424	4.028840	-1.257080	13.895288	8.873956	-25.767283	-41.330914	29.842028	6.909970	44.196268	30.209648	24.258924	4.278787	45.938700	30.677447	13.541431	-4.409930	53.199036	36.854627	2.346510	-8.340189	62.071424	43.131300
-1.275000	-160.147433	-5.066637	-73.570646	0.082690	-0.181985	-0.019428	103.518946	4.036015	-1.263712	13.877730	8.882783	-25.758025	-41.321542	29.837956	6.924952	44.194679	30.202149	24.261621	4.281459	45.955466	30.677162	13.541443	-4.412917	53.218800	36.864955	2.359338	-8.334685	62.073501	43.127692
-1.265000	-160.147433	-5.066637	-73.570646	0.082687	-0.181986	-0.019429	103.535140	4.043413	-1.269105	13.860000	8.890456	-25.752579	-41.311169	29.828208	6.941854	44.186314	30.191582	24.260557	4.284283	45.973770	30.679260	13.539414	-4.415922	53.237808	36.873535	2.373216	-8.330805	62.082308	43.126499
-1.255000	-160.147433	-5.066637	-73.570646	0.082685	-0.181987	-0.019431	103.549180	4.049721	-1.271281	13.843659	8.897243	-25.753186	-41.304079	29.816470	6.956122	44.176431	30.181840	24.256084	4.287446	45.987144	30.681142	13.534438	-4.417675	53.251738	36.878452	2.384971	-8.330992	62.098318	43.128732
-1.245000	-160.147433	-5.066637	-73.570646	0.082684	-0.181985	-0.019433	103.559973	4.054660	-1.268982	13.829394	8.905138	-25.760281	-41.302570	29.805200	6.964553	44.170841	30.176967	24.248743	4.291411	45.990506	30.680460	13.526785	-4.417299	53.257462	36.878521	2.392309	-8.336623	62.120418	43.134744
-1.235000	-160.147433	-5.066637	-73.570646	0.082685	-0.181980	-0.019433	103.568126	4.058998	-1.262150	13.816236	8.917485	-25.773435	-41.307098	29.795051	6.966317	44.172455	30.179121	24.238971	4.296345	45.982516	30.676454	13.517530	-4.414824	53.254308	36.874013	2.394128	-8.347154	62.145676	43.144009
-1.225000	-160.147433	-5.066637	-73.570646	0.082688	-0.181971	-0.019433	103.574865	4.063877	-1.251830	13.802004	8.937721	-25.792126	-41.316958	29.785444	6.962746	44.179583	30.187463	24.227065	4.301767	45.965870	30.670206	13.507799	-4.411291	53.244323	36.866816	2.390243	-8.360162	62.169985	43.155265
-1.215000	-160.147433	-5.066637	-73.570646	0.082692	-0.181959	-0.019431	103.580732	4.069946	-1.239595	13.784688	8.967548	-25.815637	-41.330603	29.775699	6.956169	44.187028	30.198564	24.213348	4.306709	45.945417	30.663705	13.498215	-4.408352	53.231264	36.859760	2.381002	-8.372405	62.189233	43.166811
-1.205000	-160.147433	-5.066637	-73.570646	0.082696	-0.181946	-0.019429	103.585023	4.076910	-1.226959	13.763914	9.005337	-25.842324	-41.345578	29.766033	6.948581	44.189255	30.208059	24.198506	4.310230	45.925447	30.658475	13.488951	-4.407561	53.218926	36.855397	2.367326	-8.381262	62.200376	43.176757
-1.195000	-160.147433	-5.066637	-73.570646	0.082699	-0.181933	-0.019426	103.586433	4.083738	-1.215136	13.741542	9.045858	-25.869005	-41.358545	29.757877	6.940930	44.183760	30.212690	24.183969	4.311918	45.908094	30.654798	13.480267	-4.409693	53.209900	36.854984	2.351181	-8.385637	62.202027	43.183209
-1.185000	-160.147433	-5.066637	-73.570646	0.082701	-0.181922	-0.019424	103.584454	4.089414	-1.205087	13.720989	9.082077	-25.891232	-41.365888	29.753215	6.933340	44.172784	30.211792	24.171882	4.312023	45.893860	30.652131	13.472933	-4.414435	53.205448	36.858294	2.335938	-8.385808	62.194449	43.184498
-1.175000	-160.147433	-5.066637	-73.570646	0.082702	-0.181913	-0.019421	103.580408	4.093692	-1.197518	13.705547	9.108557	-25.904697	-41.365016	29.753217	6.925845	44.162503	30.207570	24.164295	4.311211	45.883484	30.650271	13.467920	-4.420553	53.206122	36.864227	2.325793	-8.382549	62.179099	43.179540
